# xmcd
#
# Track frame offsets:
#	150
#	17380
#	29512
#	42562
#	56158
#	68095
#	84538
#	101272
#	119004
#	132246
#	152766
#	165108
#	177865
#	191110
#	212222
#	228556
#	246365
#	260072
#	282290
#	301120
#
# Disc length: 4213 seconds
#
# Revision: 1
# Processed by: cddbd v1.5.2PL0 Copyright (c) Steve Scherf et al.
# Submitted via: audiograbber 1.83.01
#
DISCID=1a107314
DTITLE=Various Artist - The Balladeers Vol 8
DYEAR=2007
DGENRE=Country
TTITLE0=Julia Perandes - Me And Moonlight
TTITLE1=Matt Manning - Bullockies Daydream
TTITLE2=Jeff Gibson - The Three Horse Dray
TTITLE3=Nathan Charlton - The Drovers Are Back
TTITLE4=Anita Ree - Saltwater Creek Sliprails
TTITLE5=Les Lawson - Have Guitar Gotta Travel
TTITLE6=John Colville - The Best View Of Australia
TTITLE7=Digger Doug Langman - The Old Bush Sawmill
TTITLE8=Wilf Elliott - Wilga Run
TTITLE9=Reg Briskey - Half The Man
TTITLE10=Neil McGillivray - Welcom To My Campfire
TTITLE11=Digger Doug Langman - The Don
TTITLE12=Micheal Pincott - Walking For Water
TTITLE13=Barry K Chandler - Unknown Lighthouse Soldier
TTITLE14=Peter Simpson - Old Bush Picker
TTITLE15=David Croser - Country Music
TTITLE16=Micheal and Pat Pincott - Wher The Rhodes Grass Grown
TTITLE17=Keven and Joyce Durdin - Every Road I Travel
TTITLE18=Chris Strohfeld - What's Happened To The Rain?
TTITLE19=Pam Court - The Verandah
EXTD=
EXTT0=
EXTT1=
EXTT2=
EXTT3=
EXTT4=
EXTT5=
EXTT6=
EXTT7=
EXTT8=
EXTT9=
EXTT10=
EXTT11=
EXTT12=
EXTT13=
EXTT14=
EXTT15=
EXTT16=
EXTT17=
EXTT18=
EXTT19=
PLAYORDER=
